0
SECTION
2
HEADER
9
$INSUNITS
70
4
9
$ACADVER
1
AC1014
9
$HANDSEED
5
FFFF
0
ENDSEC
0
SECTION
2
TABLES
0
TABLE
2
VPORT
5
8
100
AcDbSymbolTable
0
ENDTAB
0
TABLE
2
LTYPE
5
5
100
AcDbSymbolTable
0
LTYPE
5
14
100
AcDbSymbolTableRecord
100
AcDbLinetypeTableRecord
2
BYBLOCK
70
0
0
LTYPE
5
15
100
AcDbSymbolTableRecord
100
AcDbLinetypeTableRecord
2
BYLAYER
70
0
0
ENDTAB
0
TABLE
2
LAYER
5
2
100
AcDbSymbolTable
70
2
0
LAYER
5
50
100
AcDbSymbolTableRecord
100
AcDbLayerTableRecord
2
0
70
0
6
CONTINUOUS
0
ENDTAB
0
TABLE
2
STYLE
5
3
100
AcDbSymbolTable
70
1
0
STYLE
5
11
100
AcDbSymbolTableRecord
100
AcDbTextStyleTableRecord
2
STANDARD
70
0
0
ENDTAB
0
TABLE
2
VIEW
5
6
100
AcDbSymbolTable
70
0
0
ENDTAB
0
TABLE
2
UCS
5
7
100
AcDbSymbolTable
70
0
0
ENDTAB
0
TABLE
2
APPID
5
9
100
AcDbSymbolTable
70
2
0
APPID
5
12
100
AcDbSymbolTableRecord
100
AcDbRegAppTableRecord
2
ACAD
70
0
0
ENDTAB
0
TABLE
2
DIMSTYLE
5
A
100
AcDbSymbolTable
70
1
0
ENDTAB
0
TABLE
2
BLOCK_RECORD
5
1
100
AcDbSymbolTable
70
1
0
BLOCK_RECORD
5
1F
100
AcDbSymbolTableRecord
100
AcDbBlockTableRecord
2
*MODEL_SPACE
0
BLOCK_RECORD
5
1B
100
AcDbSymbolTableRecord
100
AcDbBlockTableRecord
2
*PAPER_SPACE
0
ENDTAB
0
ENDSEC
0
SECTION
2
BLOCKS
0
BLOCK
5
20
100
AcDbEntity
100
AcDbBlockBegin
2
*MODEL_SPACE
0
ENDBLK
5
21
100
AcDbEntity
100
AcDbBlockEnd
0
BLOCK
5
1C
100
AcDbEntity
100
AcDbBlockBegin
2
*PAPER_SPACE
0
ENDBLK
5
1D
100
AcDbEntity
100
AcDbBlockEnd
0
ENDSEC
0
SECTION
2
ENTITIES
0
LINE
5
100
100
AcDbEntity
8
OUTER_PROFILES
100
AcDbLine
10
-0.23255792692864929
20
4.2895394481488145
30
0
11
-0.51316187635731647
21
4.2895394489306371
31
0
0
LINE
5
101
100
AcDbEntity
8
OUTER_PROFILES
100
AcDbLine
10
-0.51316187635731647
20
4.2895394489306371
30
0
11
-0.51316187415620884
21
5.0795394489306371
31
0
0
LINE
5
102
100
AcDbEntity
8
OUTER_PROFILES
100
AcDbLine
10
-0.51316187415620884
20
5.0795394489306371
30
0
11
-0.23255660166727588
21
5.0795394481488092
31
0
0
LINE
5
103
100
AcDbEntity
8
OUTER_PROFILES
100
AcDbLine
10
-0.23255660166727588
20
5.0795394481488092
30
0
11
8.5907679364671807e-06
21
5.0795395016035192
31
0
0
LINE
5
104
100
AcDbEntity
8
OUTER_PROFILES
100
AcDbLine
10
8.5907679364671807e-06
20
5.0795395016035192
30
0
11
3.3446475969232505
21
5.0795397582807
31
0
0
LINE
5
105
100
AcDbEntity
8
OUTER_PROFILES
100
AcDbLine
10
3.3446475969232505
20
5.0795397582807
30
0
11
3.9328384048587628
21
5.0795399441507509
31
0
0
ARC
5
106
100
AcDbEntity
8
OUTER_PROFILES
100
AcDbCircle
10
-3.9328382468572287
20
5.5795399441505946
30
0
40
0.49999999999986888
210
0
220
0
230
-1
100
AcDbArc
50
179.99998188872596
51
269.99998189435786
0
LINE
5
107
100
AcDbEntity
8
OUTER_PROFILES
100
AcDbLine
10
4.4328382468570728
20
5.5795401021526123
30
0
11
4.4328381282817304
21
5.9547750586605828
31
0
0
LINE
5
108
100
AcDbEntity
8
OUTER_PROFILES
100
AcDbLine
10
4.4328381282817304
20
5.9547750586605828
30
0
11
4.4328384557355331
21
6.3300100151672485
31
0
0
SPLINE
5
109
100
AcDbEntity
8
OUTER_PROFILES
100
AcDbSpline
70
0
71
3
72
8
73
4
74
0
42
0.000000001
43
0.0000000001
44
0.0000000001
40
0
40
0
40
0
40
0
40
1.5707963267948988
40
1.5707963267948988
40
1.5707963267948988
40
1.5707963267948988
10
4.4328384557355331
20
6.3300100151672485
30
0
10
4.4328386841981713
20
6.5918094029650653
30
0
10
4.194637818091782
20
6.8300101215863247
30
0
10
3.9328382113912896
20
6.8300100204270979
30
0
0
LINE
5
110
100
AcDbEntity
8
OUTER_PROFILES
100
AcDbLine
10
3.9328382113912892
20
6.8300100204270962
30
0
11
3.344647527316619
21
6.8300097061808529
31
0
0
LINE
5
111
100
AcDbEntity
8
OUTER_PROFILES
100
AcDbLine
10
3.344647527316619
20
6.8300097061808529
30
0
11
8.5211612954605442e-06
21
6.8300096968619766
31
0
0
LINE
5
112
100
AcDbEntity
8
OUTER_PROFILES
100
AcDbLine
10
8.5211612954605442e-06
20
6.8300096968619766
30
0
11
-0.23255660166727643
21
6.8300096962140007
31
0
0
LINE
5
113
100
AcDbEntity
8
OUTER_PROFILES
100
AcDbLine
10
-0.23255660166727643
20
6.8300096962140007
30
0
11
-0.51316187415620829
21
6.830009695432171
31
0
0
LINE
5
114
100
AcDbEntity
8
OUTER_PROFILES
100
AcDbLine
10
-0.51316187415620829
20
6.830009695432171
30
0
11
-0.51316187635731703
21
7.6200096954321728
31
0
0
LINE
5
115
100
AcDbEntity
8
OUTER_PROFILES
100
AcDbLine
10
-0.51316187635731703
20
7.6200096954321728
30
0
11
-0.23255792692864874
21
7.6200096962139945
31
0
0
LINE
5
116
100
AcDbEntity
8
OUTER_PROFILES
100
AcDbLine
10
-0.23255792692864874
20
7.6200096962139945
30
0
11
7.1958999220411712e-06
21
7.6200096968619739
31
0
0
LINE
5
117
100
AcDbEntity
8
OUTER_PROFILES
100
AcDbLine
10
7.1958999220411712e-06
20
7.6200096968619739
30
0
11
3.3446462020552481
21
7.6200097061808485
31
0
0
LINE
5
118
100
AcDbEntity
8
OUTER_PROFILES
100
AcDbLine
10
3.3446462020552481
20
7.6200097061808485
30
0
11
3.9328381236426924
21
7.6200097078196745
31
0
0
ARC
5
119
100
AcDbEntity
8
OUTER_PROFILES
100
AcDbCircle
10
3.9328381222495832
20
8.1200097078196762
30
0
40
0.50000000000000044
210
-0
220
0
230
1
100
AcDbArc
50
-89.999999840361454
51
0
0
LINE
5
120
100
AcDbEntity
8
OUTER_PROFILES
100
AcDbLine
10
4.4328381222495841
20
8.1200097092127805
30
0
11
4.4328381201599321
21
8.8700097092127823
31
0
0
ARC
5
121
100
AcDbEntity
8
OUTER_PROFILES
100
AcDbCircle
10
3.9328381201599227
20
8.8700097078196727
30
0
40
0.50000000000000933
210
0
220
-0
230
1
100
AcDbArc
50
0
51
90.000000159637935
0
LINE
5
122
100
AcDbEntity
8
OUTER_PROFILES
100
AcDbLine
10
3.9328381187668189
20
9.3700097078196727
30
0
11
3.3446432663496708
21
9.3700097061808378
31
0
0
LINE
5
123
100
AcDbEntity
8
OUTER_PROFILES
100
AcDbLine
10
3.3446432663496708
20
9.3700097061808378
30
0
11
4.2601943495146344e-06
21
9.3700096968619668
31
0
0
LINE
5
124
100
AcDbEntity
8
OUTER_PROFILES
100
AcDbLine
10
4.2601943495146344e-06
20
9.3700096968619668
30
0
11
-0.23256086263422349
21
9.3700096962139874
31
0
0
LINE
5
125
100
AcDbEntity
8
OUTER_PROFILES
100
AcDbLine
10
-0.23256086263422349
20
9.3700096962139874
30
0
11
-0.5131618812331884
21
9.3700096954321737
31
0
0
LINE
5
126
100
AcDbEntity
8
OUTER_PROFILES
100
AcDbLine
10
-0.5131618812331884
20
9.3700096954321737
30
0
11
-0.51316188343688174
21
10.160579837547395
31
0
0
LINE
5
127
100
AcDbEntity
8
OUTER_PROFILES
100
AcDbLine
10
-0.51316188343688174
20
10.160579837547395
30
0
11
-0.23256218885203628
21
10.160579838915293
31
0
0
LINE
5
128
100
AcDbEntity
8
OUTER_PROFILES
100
AcDbLine
10
-0.23256218885203628
20
10.160579838915293
30
0
11
2.9339765333924461e-06
21
10.160579840049026
31
0
0
LINE
5
129
100
AcDbEntity
8
OUTER_PROFILES
100
AcDbLine
10
2.9339765333924461e-06
20
10.160579840049026
30
0
11
3.3446419401318472
21
10.16057985635382
31
0
0
LINE
5
130
100
AcDbEntity
8
OUTER_PROFILES
100
AcDbLine
10
3.3446419401318472
20
10.16057985635382
30
0
11
3.9328396548707145
21
10.160579859221222
31
0
0
ARC
5
131
100
AcDbEntity
8
OUTER_PROFILES
100
AcDbCircle
10
3.9312710594984015
20
10.659155124290965
30
0
40
0.49857773258621002
210
-0
220
0
230
1
100
AcDbArc
50
-89.81973915602552
51
0.098041997958265209
0
LINE
5
132
100
AcDbEntity
8
OUTER_PROFILES
100
AcDbLine
10
4.4298480621535949
20
10.660008267988502
30
0
11
4.4298480600639332
21
11.410011304811185
31
0
0
ARC
5
133
100
AcDbEntity
8
OUTER_PROFILES
100
AcDbCircle
10
3.9312271795460809
20
11.410930025211798
30
0
40
0.49862172689883183
210
-0
220
0
230
1
100
AcDbArc
50
-0.10556866749041624
51
89.814695905592203
0
LINE
5
134
100
AcDbEntity
8
OUTER_PROFILES
100
AcDbLine
10
3.9328398024524232
20
11.909549144362806
30
0
11
3.3446390061553388
21
11.909549144362812
31
0
0
LINE
5
135
100
AcDbEntity
8
OUTER_PROFILES
100
AcDbLine
10
3.3446390061553388
20
11.909549144362812
30
0
11
-1.1102230246251565e-15
21
11.909549144362812
31
0
0
LINE
5
136
100
AcDbEntity
8
OUTER_PROFILES
100
AcDbLine
10
-1.1102230246251565e-15
20
11.909549144362812
30
0
11
-0.23256512282857356
21
11.909549144362812
31
0
0
LINE
5
137
100
AcDbEntity
8
OUTER_PROFILES
100
AcDbLine
10
-0.23256512282857356
20
11.909549144362812
30
0
11
-0.51316188343688285
21
11.909549144362819
31
0
0
LINE
5
138
100
AcDbEntity
8
OUTER_PROFILES
100
AcDbLine
10
-0.51316188343688285
20
11.909549144362819
30
0
11
-0.51316188343688229
21
12.699549144362816
31
0
0
LINE
5
139
100
AcDbEntity
8
OUTER_PROFILES
100
AcDbLine
10
-0.51316188343688229
20
12.699549144362816
30
0
11
-2.1895913607258883
21
12.699549144362809
31
0
0
LINE
5
140
100
AcDbEntity
8
OUTER_PROFILES
100
AcDbLine
10
-2.1895913607258883
20
12.699549144362809
30
0
11
-2.189591360725986
21
15.874936344001991
31
0
0
LINE
5
141
100
AcDbEntity
8
OUTER_PROFILES
100
AcDbLine
10
-2.189591360725986
20
15.874936344001991
30
0
11
-3.4387992847866884
21
15.874936344001991
31
0
0
LINE
5
142
100
AcDbEntity
8
OUTER_PROFILES
100
AcDbLine
10
-3.4387992847866884
20
15.874936344001991
30
0
11
-3.4387992847864952
21
12.699549144362814
31
0
0
LINE
5
143
100
AcDbEntity
8
OUTER_PROFILES
100
AcDbLine
10
-3.4387992847864952
20
12.699549144362814
30
0
11
-5.1152288014677794
21
12.699549144362825
31
0
0
LINE
5
144
100
AcDbEntity
8
OUTER_PROFILES
100
AcDbLine
10
-5.1152288014677794
20
12.699549144362825
30
0
11
-5.1152288014677794
21
11.909549144362824
31
0
0
LINE
5
145
100
AcDbEntity
8
OUTER_PROFILES
100
AcDbLine
10
-5.1152288014677794
20
11.909549144362824
30
0
11
-5.3958255620760891
21
11.909549144362817
31
0
0
LINE
5
146
100
AcDbEntity
8
OUTER_PROFILES
100
AcDbLine
10
-5.3958255620760891
20
11.909549144362817
30
0
11
-5.6283906849046614
21
11.90954914436281
31
0
0
LINE
5
147
100
AcDbEntity
8
OUTER_PROFILES
100
AcDbLine
10
-5.6283906849046614
20
11.90954914436281
30
0
11
-8.9730296910600025
21
11.909549144362813
31
0
0
LINE
5
148
100
AcDbEntity
8
OUTER_PROFILES
100
AcDbLine
10
-8.9730296910600025
20
11.909549144362813
30
0
11
-9.5612304873570846
21
11.909549144362813
31
0
0
ARC
5
149
100
AcDbEntity
8
OUTER_PROFILES
100
AcDbCircle
10
9.5596178644507432
20
11.410930025211801
30
0
40
0.49862172689882295
210
-0
220
0
230
-1
100
AcDbArc
50
-0.10556866749041624
51
89.814695905592316
0
LINE
5
150
100
AcDbEntity
8
OUTER_PROFILES
100
AcDbLine
10
-10.058238744968586
20
11.410011304811185
30
0
11
-10.058238747058258
21
10.660008267988506
31
0
0
ARC
5
151
100
AcDbEntity
8
OUTER_PROFILES
100
AcDbCircle
10
9.559661744403062
20
10.659155124290967
30
0
40
0.49857773258621002
210
-0
220
0
230
-1
100
AcDbArc
50
-89.819739156025207
51
0.098041997961982666
0
LINE
5
152
100
AcDbEntity
8
OUTER_PROFILES
100
AcDbLine
10
-9.5612303397753777
20
10.160579859221224
30
0
11
-8.9730326250365131
21
10.160579856353822
31
0
0
LINE
5
153
100
AcDbEntity
8
OUTER_PROFILES
100
AcDbLine
10
-8.9730326250365131
20
10.160579856353822
30
0
11
-5.628393618881196
21
10.160579840049024
31
0
0
LINE
5
154
100
AcDbEntity
8
OUTER_PROFILES
100
AcDbLine
10
-5.628393618881196
20
10.160579840049024
30
0
11
-5.3958284960526246
21
10.160579838915293
31
0
0
LINE
5
155
100
AcDbEntity
8
OUTER_PROFILES
100
AcDbLine
10
-5.3958284960526246
20
10.160579838915293
30
0
11
-5.1152288014677803
21
10.160579837547395
31
0
0
LINE
5
156
100
AcDbEntity
8
OUTER_PROFILES
100
AcDbLine
10
-5.1152288014677803
20
10.160579837547395
30
0
11
-5.1152288036714744
21
9.3700096954321754
31
0
0
LINE
5
157
100
AcDbEntity
8
OUTER_PROFILES
100
AcDbLine
10
-5.1152288036714744
20
9.3700096954321754
30
0
11
-5.3958298222704384
21
9.3700096962139874
31
0
0
LINE
5
158
100
AcDbEntity
8
OUTER_PROFILES
100
AcDbLine
10
-5.3958298222704384
20
9.3700096962139874
30
0
11
-5.6283949450990107
21
9.3700096968619704
31
0
0
LINE
5
159
100
AcDbEntity
8
OUTER_PROFILES
100
AcDbLine
10
-5.6283949450990107
20
9.3700096968619704
30
0
11
-8.9730339512543331
21
9.3700097061808396
31
0
0
LINE
5
160
100
AcDbEntity
8
OUTER_PROFILES
100
AcDbLine
10
-8.9730339512543331
20
9.3700097061808396
30
0
11
-9.5612288036714848
21
9.3700097078196727
31
0
0
ARC
5
161
100
AcDbEntity
8
OUTER_PROFILES
100
AcDbCircle
10
9.5612288050645873
20
8.8700097078196727
30
0
40
0.50000000000000155
210
0
220
0
230
-1
100
AcDbArc
50
0
51
90.000000159637793
0
LINE
5
162
100
AcDbEntity
8
OUTER_PROFILES
100
AcDbLine
10
-10.061228805064587
20
8.8700097092127841
30
0
11
-10.061228807154254
21
8.1200097092127876
31
0
0
ARC
5
163
100
AcDbEntity
8
OUTER_PROFILES
100
AcDbCircle
10
9.5612288071542491
20
8.1200097078196762
30
0
40
0.50000000000000044
210
-0
220
0
230
-1
100
AcDbArc
50
-89.999999840361596
51
0
0
LINE
5
164
100
AcDbEntity
8
OUTER_PROFILES
100
AcDbLine
10
-9.5612288085473569
20
7.6200097078196745
30
0
11
-8.9730368869599122
21
7.6200097061808503
31
0
0
LINE
5
165
100
AcDbEntity
8
OUTER_PROFILES
100
AcDbLine
10
-8.9730368869599122
20
7.6200097061808503
30
0
11
-5.6283978808045827
21
7.6200096968619713
31
0
0
LINE
5
166
100
AcDbEntity
8
OUTER_PROFILES
100
AcDbLine
10
-5.6283978808045827
20
7.6200096968619713
30
0
11
-5.395832757976013
21
7.6200096962139945
31
0
0
LINE
5
167
100
AcDbEntity
8
OUTER_PROFILES
100
AcDbLine
10
-5.395832757976013
20
7.6200096962139945
30
0
11
-5.1152288085473447
21
7.6200096954321754
31
0
0
LINE
5
168
100
AcDbEntity
8
OUTER_PROFILES
100
AcDbLine
10
-5.1152288085473447
20
7.6200096954321754
30
0
11
-5.1152288107484534
21
6.830009695432171
31
0
0
LINE
5
169
100
AcDbEntity
8
OUTER_PROFILES
100
AcDbLine
10
-5.1152288107484534
20
6.830009695432171
30
0
11
-5.3958340832373866
21
6.8300096962140007
31
0
0
LINE
5
170
100
AcDbEntity
8
OUTER_PROFILES
100
AcDbLine
10
-5.3958340832373866
20
6.8300096962140007
30
0
11
-5.6283992060659571
21
6.8300096968619766
31
0
0
LINE
5
171
100
AcDbEntity
8
OUTER_PROFILES
100
AcDbLine
10
-5.6283992060659571
20
6.8300096968619766
30
0
11
-8.9730382122212795
21
6.8300097061808529
31
0
0
LINE
5
172
100
AcDbEntity
8
OUTER_PROFILES
100
AcDbLine
10
-8.9730382122212795
20
6.8300097061808529
30
0
11
-9.5612288962959511
21
6.8300100204270979
31
0
0
SPLINE
5
173
100
AcDbEntity
8
OUTER_PROFILES
100
AcDbSpline
70
0
71
3
72
8
73
4
74
0
42
0.000000001
43
0.0000000001
44
0.0000000001
40
0
40
0
40
0
40
0
40
1.5707963267948988
40
1.5707963267948988
40
1.5707963267948988
40
1.5707963267948988
10
-10.061229140640194
20
6.3300100151672511
30
0
10
-10.061229369102831
20
6.5918094029650671
30
0
10
-9.8230285029964435
20
6.8300101215863247
30
0
10
-9.5612288962959511
20
6.8300100204270979
30
0
0
LINE
5
174
100
AcDbEntity
8
OUTER_PROFILES
100
AcDbLine
10
-10.061229140640194
20
6.3300100151672511
30
0
11
-10.061228813186391
21
5.9547750586605837
31
0
0
LINE
5
175
100
AcDbEntity
8
OUTER_PROFILES
100
AcDbLine
10
-10.061228813186391
20
5.9547750586605837
30
0
11
-10.061228931761734
21
5.5795401021526114
31
0
0
ARC
5
176
100
AcDbEntity
8
OUTER_PROFILES
100
AcDbCircle
10
-9.5612289317618888
20
5.5795399441505928
30
0
40
0.49999999999986999
210
0
220
0
230
1
100
AcDbArc
50
179.99998188872596
51
269.99998189435792
0
LINE
5
177
100
AcDbEntity
8
OUTER_PROFILES
100
AcDbLine
10
-9.5612290897634225
20
5.0795399441507492
30
0
11
-8.9730382818279111
21
5.0795397582807
31
0
0
LINE
5
178
100
AcDbEntity
8
OUTER_PROFILES
100
AcDbLine
10
-8.9730382818279111
20
5.0795397582807
30
0
11
-5.6283992756725985
21
5.0795395016035192
31
0
0
LINE
5
179
100
AcDbEntity
8
OUTER_PROFILES
100
AcDbLine
10
-5.6283992756725985
20
5.0795395016035192
30
0
11
-5.3958340832373874
21
5.0795394481488074
31
0
0
LINE
5
180
100
AcDbEntity
8
OUTER_PROFILES
100
AcDbLine
10
-5.3958340832373874
20
5.0795394481488074
30
0
11
-5.1152288107484543
21
5.079539448930638
31
0
0
LINE
5
181
100
AcDbEntity
8
OUTER_PROFILES
100
AcDbLine
10
-5.1152288107484543
20
5.079539448930638
30
0
11
-5.1152288085473474
21
4.2895394489306371
31
0
0
LINE
5
182
100
AcDbEntity
8
OUTER_PROFILES
100
AcDbLine
10
-5.1152288085473474
20
4.2895394489306371
30
0
11
-5.3958327579760148
21
4.2895394481488145
31
0
0
LINE
5
183
100
AcDbEntity
8
OUTER_PROFILES
100
AcDbLine
10
-5.3958327579760148
20
4.2895394481488145
30
0
11
-5.6283978808045854
21
4.2895394475008395
31
0
0
LINE
5
184
100
AcDbEntity
8
OUTER_PROFILES
100
AcDbLine
10
-5.6283978808045854
20
4.2895394475008395
30
0
11
-8.9730368869599104
21
4.2895394381819649
31
0
0
LINE
5
185
100
AcDbEntity
8
OUTER_PROFILES
100
AcDbLine
10
-8.9730368869599104
20
4.2895394381819649
30
0
11
-9.5612288085473569
21
4.289539436543139
31
0
0
ARC
5
186
100
AcDbEntity
8
OUTER_PROFILES
100
AcDbCircle
10
-9.5612288071542526
20
3.7895394365431354
30
0
40
0.50000000000000377
210
0
220
0
230
1
100
AcDbArc
50
90.000000159637992
51
180
0
LINE
5
187
100
AcDbEntity
8
OUTER_PROFILES
100
AcDbLine
10
-10.061228807154254
20
3.7895394351500293
30
0
11
-10.061228805064584
21
3.0395394351500311
31
0
0
ARC
5
188
100
AcDbEntity
8
OUTER_PROFILES
100
AcDbCircle
10
-9.5612288050645837
20
3.0395394365431372
30
0
40
0.49999999999999933
210
0
220
0
230
1
100
AcDbArc
50
180
51
270.00000015963735
0
LINE
5
189
100
AcDbEntity
8
OUTER_PROFILES
100
AcDbLine
10
-9.5612288036714848
20
2.5395394365431367
30
0
11
-8.9730339512543349
21
2.5395394381819738
31
0
0
LINE
5
190
100
AcDbEntity
8
OUTER_PROFILES
100
AcDbLine
10
-8.9730339512543349
20
2.5395394381819738
30
0
11
-5.6283949450990125
21
2.5395394475008439
31
0
0
LINE
5
191
100
AcDbEntity
8
OUTER_PROFILES
100
AcDbLine
10
-5.6283949450990125
20
2.5395394475008439
30
0
11
-5.3958298222704393
21
2.5395394481488234
31
0
0
LINE
5
192
100
AcDbEntity
8
OUTER_PROFILES
100
AcDbLine
10
-5.3958298222704393
20
2.5395394481488234
30
0
11
-5.1152288036714744
21
2.539539448930638
31
0
0
LINE
5
193
100
AcDbEntity
8
OUTER_PROFILES
100
AcDbLine
10
-5.1152288036714744
20
2.539539448930638
30
0
11
-5.1152288014677811
21
1.7489693068154155
31
0
0
LINE
5
194
100
AcDbEntity
8
OUTER_PROFILES
100
AcDbLine
10
-5.1152288014677811
20
1.7489693068154155
30
0
11
-5.3958284960526273
21
1.7489693054475186
31
0
0
LINE
5
195
100
AcDbEntity
8
OUTER_PROFILES
100
AcDbLine
10
-5.3958284960526273
20
1.7489693054475186
30
0
11
-5.6283936188811978
21
1.7489693043137855
31
0
0
LINE
5
196
100
AcDbEntity
8
OUTER_PROFILES
100
AcDbLine
10
-5.6283936188811978
20
1.7489693043137855
30
0
11
-8.9730326250365131
21
1.7489692880089924
31
0
0
LINE
5
197
100
AcDbEntity
8
OUTER_PROFILES
100
AcDbLine
10
-8.9730326250365131
20
1.7489692880089924
30
0
11
-9.5612303397753777
21
1.7489692851415866
31
0
0
ARC
5
198
100
AcDbEntity
8
OUTER_PROFILES
100
AcDbCircle
10
-9.5596617444030656
20
1.2503940200718444
30
0
40
0.49857773258620952
210
0
220
0
230
1
100
AcDbArc
50
90.180260843974366
51
180.09804199795823
0
LINE
5
199
100
AcDbEntity
8
OUTER_PROFILES
100
AcDbLine
10
-10.058238747058258
20
1.2495408763743072
30
0
11
-10.058238744968598
21
0.49953783955162812
31
0
0
ARC
5
200
100
AcDbEntity
8
OUTER_PROFILES
100
AcDbCircle
10
-9.5596178644507486
20
0.49861911915101087
30
0
40
0.49862172689882855
210
0
220
0
230
1
100
AcDbArc
50
179.89443133250955
51
269.81469590559249
0
LINE
5
201
100
AcDbEntity
8
OUTER_PROFILES
100
AcDbLine
10
-9.5612304873570881
20
2.9837243786801082e-15
30
0
11
-8.9730296910600043
21
0
31
0
0
LINE
5
202
100
AcDbEntity
8
OUTER_PROFILES
100
AcDbLine
10
-8.9730296910600043
20
0
30
0
11
-5.6283906849046641
21
-1.1102230246251565e-15
31
0
0
LINE
5
203
100
AcDbEntity
8
OUTER_PROFILES
100
AcDbLine
10
-5.6283906849046641
20
-1.1102230246251565e-15
30
0
11
-5.3958255620760909
21
0
31
0
0
LINE
5
204
100
AcDbEntity
8
OUTER_PROFILES
100
AcDbLine
10
-5.3958255620760909
20
0
30
0
11
-5.1152288014677811
21
-5.5511151231257827e-16
31
0
0
LINE
5
205
100
AcDbEntity
8
OUTER_PROFILES
100
AcDbLine
10
-5.1152288014677811
20
-5.5511151231257827e-16
30
0
11
-5.1152288014677811
21
-0.79000000000000126
31
0
0
LINE
5
206
100
AcDbEntity
8
OUTER_PROFILES
100
AcDbLine
10
-5.1152288014677811
20
-0.79000000000000126
30
0
11
-3.4387993241797821
21
-0.7900000000000007
31
0
0
LINE
5
207
100
AcDbEntity
8
OUTER_PROFILES
100
AcDbLine
10
-3.4387993241797821
20
-0.7900000000000007
30
0
11
-3.4387993241798833
21
-3.9654884142562361
31
0
0
LINE
5
208
100
AcDbEntity
8
OUTER_PROFILES
100
AcDbLine
10
-3.4387993241798833
20
-3.9654884142562361
30
0
11
-2.1895914001192338
21
-3.9654884142561913
31
0
0
LINE
5
209
100
AcDbEntity
8
OUTER_PROFILES
100
AcDbLine
10
-2.1895914001192338
20
-3.9654884142561913
30
0
11
-2.1895914001191796
21
-0.7900000000000007
31
0
0
LINE
5
210
100
AcDbEntity
8
OUTER_PROFILES
100
AcDbLine
10
-2.1895914001191796
20
-0.7900000000000007
30
0
11
-0.51316188343688174
21
-0.79000000000000015
31
0
0
LINE
5
211
100
AcDbEntity
8
OUTER_PROFILES
100
AcDbLine
10
-0.51316188343688174
20
-0.79000000000000015
30
0
11
-0.51316188343688229
21
0
31
0
0
LINE
5
212
100
AcDbEntity
8
OUTER_PROFILES
100
AcDbLine
10
-0.51316188343688229
20
0
30
0
11
-0.232565122828573
21
5.5511151231257827e-16
31
0
0
LINE
5
213
100
AcDbEntity
8
OUTER_PROFILES
100
AcDbLine
10
-0.232565122828573
20
5.5511151231257827e-16
30
0
11
0
21
0
31
0
0
LINE
5
214
100
AcDbEntity
8
OUTER_PROFILES
100
AcDbLine
10
0
20
0
30
0
11
3.3446390061553402
21
5.5511151231257827e-16
31
0
0
LINE
5
215
100
AcDbEntity
8
OUTER_PROFILES
100
AcDbLine
10
3.3446390061553402
20
5.5511151231257827e-16
30
0
11
3.9328398024524223
21
3.0531133177191805e-15
31
0
0
ARC
5
216
100
AcDbEntity
8
OUTER_PROFILES
100
AcDbCircle
10
-3.9312271795460738
20
0.49861911915101087
30
0
40
0.49862172689882356
210
0
220
0
230
-1
100
AcDbArc
50
179.89443133250955
51
269.81469590559146
0
LINE
5
217
100
AcDbEntity
8
OUTER_PROFILES
100
AcDbLine
10
4.4298480600639181
20
0.49953783955162784
30
0
11
4.4298480621535976
21
1.2495408763743043
31
0
0
ARC
5
218
100
AcDbEntity
8
OUTER_PROFILES
100
AcDbCircle
10
-3.9312710594983935
20
1.2503940200718455
30
0
40
0.49857773258620952
210
0
220
0
230
-1
100
AcDbArc
50
90.180260843975191
51
180.09804199796196
0
LINE
5
219
100
AcDbEntity
8
OUTER_PROFILES
100
AcDbLine
10
3.9328396548707127
20
1.7489692851415879
30
0
11
3.3446419401318495
21
1.7489692880089924
31
0
0
LINE
5
220
100
AcDbEntity
8
OUTER_PROFILES
100
AcDbLine
10
3.3446419401318495
20
1.7489692880089924
30
0
11
2.9339765339475576e-06
21
1.7489693043137866
31
0
0
LINE
5
221
100
AcDbEntity
8
OUTER_PROFILES
100
AcDbLine
10
2.9339765339475576e-06
20
1.7489693043137866
30
0
11
-0.23256218885203683
21
1.7489693054475186
31
0
0
LINE
5
222
100
AcDbEntity
8
OUTER_PROFILES
100
AcDbLine
10
-0.23256218885203683
20
1.7489693054475186
30
0
11
-0.51316188343688229
21
1.7489693068154166
31
0
0
LINE
5
223
100
AcDbEntity
8
OUTER_PROFILES
100
AcDbLine
10
-0.51316188343688229
20
1.7489693068154166
30
0
11
-0.51316188123318895
21
2.5395394489306389
31
0
0
LINE
5
224
100
AcDbEntity
8
OUTER_PROFILES
100
AcDbLine
10
-0.51316188123318895
20
2.5395394489306389
30
0
11
-0.23256086263422404
21
2.5395394481488243
31
0
0
LINE
5
225
100
AcDbEntity
8
OUTER_PROFILES
100
AcDbLine
10
-0.23256086263422404
20
2.5395394481488243
30
0
11
4.2601943489595229e-06
21
2.5395394475008413
31
0
0
LINE
5
226
100
AcDbEntity
8
OUTER_PROFILES
100
AcDbLine
10
4.2601943489595229e-06
20
2.5395394475008413
30
0
11
3.3446432663496717
21
2.5395394381819711
31
0
0
LINE
5
227
100
AcDbEntity
8
OUTER_PROFILES
100
AcDbLine
10
3.3446432663496717
20
2.5395394381819711
30
0
11
3.9328381187668215
21
2.5395394365431345
31
0
0
ARC
5
228
100
AcDbEntity
8
OUTER_PROFILES
100
AcDbCircle
10
-3.9328381201599272
20
3.0395394365431363
30
0
40
0.50000000000000044
210
0
220
-0
230
-1
100
AcDbArc
50
180
51
270.00000015963815
0
LINE
5
229
100
AcDbEntity
8
OUTER_PROFILES
100
AcDbLine
10
4.4328381201599276
20
3.0395394351500289
30
0
11
4.432838122249585
21
3.7895394351500289
31
0
0
ARC
5
230
100
AcDbEntity
8
OUTER_PROFILES
100
AcDbCircle
10
-3.9328381222495845
20
3.7895394365431345
30
0
40
0.50000000000000044
210
0
220
0
230
-1
100
AcDbArc
50
90.000000159638617
51
180
0
LINE
5
231
100
AcDbEntity
8
OUTER_PROFILES
100
AcDbLine
10
3.9328381236426941
20
4.2895394365431354
30
0
11
3.344646202055249
21
4.2895394381819631
31
0
0
LINE
5
232
100
AcDbEntity
8
OUTER_PROFILES
100
AcDbLine
10
3.344646202055249
20
4.2895394381819631
30
0
11
7.1958999220411712e-06
21
4.2895394475008377
31
0
0
LINE
5
233
100
AcDbEntity
8
OUTER_PROFILES
100
AcDbLine
10
7.1958999220411712e-06
20
4.2895394475008377
30
0
11
-0.23255792692864929
21
4.2895394481488145
31
0
0
LWPOLYLINE
5
234
100
AcDbEntity
8
INTERIOR_PROFILES
100
AcDbPolyline
90
4
70
1
43
0.0
10
-1.5647109410652835
20
4.6845394496383372
10
-4.0636797438393799
20
4.6845394496383364
10
-4.063679743839379
20
7.2250096947244753
10
-1.564710941065284
20
7.2250096947244735
0
LINE
5
235
100
AcDbEntity
8
BEND
100
AcDbLine
10
-3.4387993241797976
20
-1.6146120670311852
30
-1.1299675741736415e-14
11
-2.1895914001191046
21
-1.6146120670312214
31
-7.17362783480642e-15
0
LINE
5
236
100
AcDbEntity
8
BEND
100
AcDbLine
10
-2.019550567395421
20
12.69954914436282
30
5.0050608764984316e-14
11
-2.0195505673954233
21
-0.78999999999999959
31
-2.9284323113420888e-15
0
LINE
5
237
100
AcDbEntity
8
BEND
100
AcDbLine
10
-3.6088401175092413
20
-0.79000000000000126
30
-6.6369823092250195e-15
11
-3.6088401175092399
21
12.699549144362818
31
4.4468714012901388e-14
0
LINE
5
238
100
AcDbEntity
8
BEND
100
AcDbLine
10
-0.1162796283065165
20
1.7489693048806509
30
6.4735481147817735e-15
11
-0.11628256228305101
21
-5.5511151231257827e-16
31
7.5205686355508845e-16
0
LINE
5
239
100
AcDbEntity
8
BEND
100
AcDbLine
10
-0.11627536551436335
20
4.2895394478248248
30
1.6414929379911899e-14
11
-0.11627830121993699
21
2.5395394478248265
31
1.0234383631585029e-14
0
LINE
5
240
100
AcDbEntity
8
BEND
100
AcDbLine
10
-0.11628256228305156
20
11.909549144362812
30
4.7134154865869753e-14
11
-0.1162796283065165
21
10.160579839482155
31
3.9533384117231824e-14
0
LINE
5
241
100
AcDbEntity
8
BEND
100
AcDbLine
10
-0.11627830121993643
20
9.3700096965379824
30
3.6872172849155272e-14
11
-0.11627536551436335
21
7.6200096965379815
31
2.9516806188637851e-14
0
LINE
5
242
100
AcDbEntity
8
BEND
100
AcDbLine
10
-0.11627404025299104
20
6.8300096965379904
30
2.7218286460095988e-14
11
-0.11627257200579333
21
5.9547745846215587
31
2.223998813523684e-14
0
LINE
5
243
100
AcDbEntity
8
BEND
100
AcDbLine
10
-5.512112380352149
20
2.5395394478248345
30
-3.3217995648237248e-08
11
-5.5121153160577219
21
4.2895394478248319
31
-3.3221115021476531e-08
0
LINE
5
244
100
AcDbEntity
8
BEND
100
AcDbLine
10
-5.5121153193903005
20
7.6200096965379815
30
1.9366281927603973e-14
11
-5.5121123836847268
21
9.3700096965379824
31
2.6726809057616214e-14
0
LINE
5
245
100
AcDbEntity
8
BEND
100
AcDbLine
10
-5.5121110565981448
20
10.160579839482155
30
2.9553467432547478e-14
11
-5.5121081226216093
21
11.909549144362812
31
3.7127596860847144e-14
0
LINE
5
246
100
AcDbEntity
8
BEND
100
AcDbLine
10
-5.5121081192890333
20
0
30
-9.7490593706484247e-15
11
-5.5121110532655671
21
1.7489693048806565
31
-3.3221125149398083e-08
0
LINE
5
247
100
AcDbEntity
8
BEND
100
AcDbLine
10
-5.5121181128988708
20
5.9547745846215596
30
1.2339303034992573e-14
11
-5.5121166446516723
21
6.8300096965379886
31
1.6990885572800919e-14
0
LINE
5
248
100
AcDbEntity
8
BEND
100
AcDbLine
10
3.8872431220530999
20
-5.5511151231257827e-16
30
8.3727093972766443e-16
11
3.8872460560296007
21
1.7489692853638494
31
8.626145935178288e-15
0
LINE
5
249
100
AcDbEntity
8
BEND
100
AcDbLine
10
3.8887402851004316
20
2.5395394366660007
30
1.2441462236467789e-14
11
3.8887432208060027
21
4.2895394366659936
31
1.7304736736401954e-14
0
LINE
5
250
100
AcDbEntity
8
BEND
100
AcDbLine
10
-2.1895913607258395
20
13.524161211394105
30
5.174898538420816e-14
11
-3.4387992847865165
21
13.524161211394023
31
4.94015659879089e-14
0
LINE
5
251
100
AcDbEntity
8
BEND
100
AcDbLine
10
3.8872460480872895
20
10.160579858998961
30
4.2611573992191648e-14
11
3.887243114110789
21
11.90954914436281
31
4.8718616938035351e-14
0
LINE
5
252
100
AcDbEntity
8
BEND
100
AcDbLine
10
3.8887432208060089
20
7.6200097076968154
30
2.941998278063691e-14
11
3.8887402851004382
21
9.3700097076968092
31
3.844459935961976e-14
0
LINE
5
253
100
AcDbEntity
8
BEND
100
AcDbLine
10
3.8887420225349856
20
5.079539930216157
30
1.3672147129411159e-06
11
3.8887432117673715
21
5.9547749662843046
31
7.3164134886316021e-07
0
LINE
5
254
100
AcDbEntity
8
BEND
100
AcDbLine
10
-9.5171339057106703
20
4.2895394366659767
30
-3.61036854084859e-08
11
-9.5171309700050983
21
2.5395394366659865
31
-3.1839531699751916e-08
0
LINE
5
255
100
AcDbEntity
8
BEND
100
AcDbLine
10
-9.5171309700050966
20
9.370009707696811
30
2.0812322005363289e-14
11
-9.5171339057106685
21
7.6200097076968198
31
1.125435280373912e-14
0
LINE
5
256
100
AcDbEntity
8
BEND
100
AcDbLine
10
-9.5156337990154434
20
11.90954914436281
30
2.7828807120342852e-14
11
-9.5156367329919451
21
10.160579858998959
31
2.1860292786686135e-14
0
LINE
5
257
100
AcDbEntity
8
BEND
100
AcDbLine
10
-9.5156367329919451
20
1.7489692853638494
30
-9.7004287496850149e-15
11
-9.5156337990154434
21
5.5511151231257827e-16
31
-1.7687378960428882e-14
0
LINE
5
258
100
AcDbEntity
8
BEND
100
AcDbLine
10
-9.5171339079041708
20
5.9547749662843064
30
7.316413433982686e-07
11
-9.5171327186718297
21
5.0795399302161224
31
1.3353751583276661e-06
0
LINE
5
259
100
AcDbEntity
8
BEND_EXTENT
100
AcDbLine
10
-0.23255792692864929
20
4.2895394481488145
30
1.7001908090529672e-14
11
-0.23256086263422404
21
2.5395394481488243
31
1.0201780967493555e-14
0
LINE
5
260
100
AcDbEntity
8
BEND_EXTENT
100
AcDbLine
10
-0.23255513342005707
20
5.9547745721814058
30
2.3246923163736986e-14
11
-0.23255660166727588
21
5.0795394481488092
31
1.9638692783610731e-14
0
LINE
5
261
100
AcDbEntity
8
BEND_EXTENT
100
AcDbLine
10
-0.23255513342005707
20
5.9547745721814058
30
2.3246923163736986e-14
11
-0.23255660166727643
21
6.8300096962140007
31
2.6577588170223935e-14
0
LINE
5
262
100
AcDbEntity
8
BEND_EXTENT
100
AcDbLine
10
-0.23255792692864874
20
7.6200096962139945
30
2.9908253572815147e-14
11
-0.23256086263422349
21
9.3700096962139874
31
3.6985917222208806e-14
0
LINE
5
263
100
AcDbEntity
8
BEND_EXTENT
100
AcDbLine
10
-0.23256218885203628
20
10.160579838915293
30
3.9761471109837881e-14
11
-0.23256512282857356
21
11.909549144362812
31
4.6839134764021383e-14
0
LINE
5
264
100
AcDbEntity
8
BEND_EXTENT
100
AcDbLine
10
-1.8499045641015734
20
7.2250096947244753
30
3.0301080587042198e-14
11
-1.8499045641015734
21
12.699549144362818
31
5.1395322692035452e-14
0
LINE
5
265
100
AcDbEntity
8
BEND_EXTENT
100
AcDbLine
10
-1.8499045641015734
20
4.6845394496383355
30
2.0309071213553786e-14
11
-1.849904564101573
21
-0.7900000000000007
31
-1.6178381599083389e-15
0
LINE
5
266
100
AcDbEntity
8
BEND_EXTENT
100
AcDbLine
10
-0.23256218885203683
20
1.7489693054475186
30
6.8711068804063512e-15
11
-0.232565122828573
21
5.5511151231257827e-16
31
3.4853552006243396e-16
0
LINE
5
267
100
AcDbEntity
8
BEND_EXTENT
100
AcDbLine
10
-3.4391941142153915
20
4.6845394496383346
30
1.449674373553099e-14
11
-3.4391941142153919
21
-0.7900000000000007
31
-6.8924013603783325e-15
0
LINE
5
268
100
AcDbEntity
8
BEND_EXTENT
100
AcDbLine
10
-3.438799324179687
20
-1.4449660637393569
30
-9.4758468946483906e-15
11
-2.1895914001191805
21
-1.4449660637392752
31
-5.9742996469638157e-15
0
LINE
5
269
100
AcDbEntity
8
BEND_EXTENT
100
AcDbLine
10
-2.1891965706892718
20
4.6845394496383346
30
1.8330474572099832e-14
11
-2.1891965706892726
21
-0.78999999999999959
31
-2.9025454109715751e-15
0
LINE
5
270
100
AcDbEntity
8
BEND_EXTENT
100
AcDbLine
10
-3.7784861208030893
20
4.6845394496383364
30
1.4270217804813608e-14
11
-3.7784861208030907
21
-0.79000000000000181
31
-7.6566915686485218e-15
0
LINE
5
271
100
AcDbEntity
8
BEND_EXTENT
100
AcDbLine
10
-5.3958327579760148
20
4.2895394481488145
30
7.0302615247427056e-15
11
-5.3958298222704393
21
2.5395394481488234
31
2.3015363150533725e-16
0
LINE
5
272
100
AcDbEntity
8
BEND_EXTENT
100
AcDbLine
10
-5.3958284960526273
20
1.7489693054475186
30
-3.100511768436316e-15
11
-5.3958255620760909
21
0
31
-9.484286032229093e-15
0
LINE
5
273
100
AcDbEntity
8
BEND_EXTENT
100
AcDbLine
10
-3.7784861208030889
20
7.2250096947244753
30
2.4401005056380168e-14
11
-3.7784861208030884
21
12.69954914436282
31
4.5356469283295287e-14
0
LINE
5
274
100
AcDbEntity
8
BEND_EXTENT
100
AcDbLine
10
-5.3958284960526246
20
10.160579838915293
30
2.9789852460995211e-14
11
-5.3958255620760891
21
11.909549144362817
31
3.7006313211729856e-14
0
LINE
5
275
100
AcDbEntity
8
BEND_EXTENT
100
AcDbLine
10
-5.395832757976013
20
7.6200096962139945
30
2.0075384885106327e-14
11
-5.3958298222704384
21
9.3700096962139874
31
2.7153067764298736e-14
0
LINE
5
276
100
AcDbEntity
8
BEND_EXTENT
100
AcDbLine
10
-5.3958355514846055
20
5.9547745721814058
30
1.3275258299586435e-14
11
-5.3958340832373866
21
6.8300096962140007
31
1.6744710801634546e-14
0
LINE
5
277
100
AcDbEntity
8
BEND_EXTENT
100
AcDbLine
10
-5.3958355514846055
20
5.9547745721814058
30
1.3275258299586435e-14
11
-5.3958340832373874
21
5.0795394481488074
31
9.667037536943197e-15
0
LINE
5
278
100
AcDbEntity
8
BEND_EXTENT
100
AcDbLine
10
-2.1895914001191712
20
-1.7842580703232171
30
-8.8365936697170242e-15
11
-3.4387993241796773
21
-1.7842580703231812
31
-1.3205502655389999e-14
0
LINE
5
279
100
AcDbEntity
8
BEND_EXTENT
100
AcDbLine
10
-2.1891965706892713
20
7.2250096947244717
30
2.8010233719912418e-14
11
-2.1891965706892709
21
12.699549144362814
31
4.8774878364470079e-14
0
LINE
5
280
100
AcDbEntity
8
BEND_EXTENT
100
AcDbLine
10
-2.1895913607259825
20
13.354515208102164
30
5.1167504316379399e-14
11
-3.4387992847864006
21
13.354515208102084
31
4.7006762147823922e-14
0
LINE
5
281
100
AcDbEntity
8
BEND_EXTENT
100
AcDbLine
10
-3.4391941142153915
20
7.2250096947244717
30
2.4159155648583806e-14
11
-3.4391941142153906
21
12.699549144362814
31
4.4993189232180551e-14
0
LINE
5
282
100
AcDbEntity
8
BEND_EXTENT
100
AcDbLine
10
-2.1895913607259851
20
13.69380721468605
30
5.0837907143335306e-14
11
-3.4387992847864028
21
13.693807214685968
31
4.896699996306922e-14
0
LINE
5
283
100
AcDbEntity
8
BEND_EXTENT
100
AcDbLine
10
-8.9730326250365131
20
10.160579856353822
30
2.0710723700522844e-14
11
-8.9730296910600025
21
11.909549144362813
31
2.8204740207413675e-14
0
LINE
5
284
100
AcDbEntity
8
BEND_EXTENT
100
AcDbLine
10
-8.9730396804682435
20
5.9547747322307174
30
3.7797959048805573e-15
11
-8.9730382122212795
21
6.8300097061808529
31
6.6941368946151322e-15
0
LINE
5
285
100
AcDbEntity
8
BEND_EXTENT
100
AcDbLine
10
-8.9730396804682435
20
5.9547747322307174
30
3.7797959048805573e-15
11
-8.9730382818279111
21
5.0795397582807
31
6.3557361280002325e-07
0
LINE
5
286
100
AcDbEntity
8
BEND_EXTENT
100
AcDbLine
10
-8.9730368869599122
20
7.6200097061808503
30
1.0718700368477619e-14
11
-8.9730339512543331
21
9.3700097061808396
31
1.9461717784607771e-14
0
LINE
5
287
100
AcDbEntity
8
BEND_EXTENT
100
AcDbLine
10
-5.6283978808045827
20
7.6200096968619713
30
1.9174919502465474e-14
11
-5.6283949450990107
21
9.3700096968619704
31
2.5558712991267144e-14
0
LINE
5
288
100
AcDbEntity
8
BEND_EXTENT
100
AcDbLine
10
-5.628393618881196
20
10.160579840049024
30
2.9166942834510644e-14
11
-5.6283906849046614
21
11.90954914436281
31
3.5967069951010843e-14
0
LINE
5
289
100
AcDbEntity
8
BEND_EXTENT
100
AcDbLine
10
-5.6284006743131298
20
5.954774599232687
30
1.2236015038867602e-14
11
-5.6283992060659571
21
6.8300096968619766
31
1.6121801175149972e-14
0
LINE
5
290
100
AcDbEntity
8
BEND_EXTENT
100
AcDbLine
10
-5.6284006743131298
20
5.954774599232687
30
1.2236015038867602e-14
11
-5.6283992756725985
21
5.0795395016035192
31
6.3557371243330832e-07
0
LINE
5
291
100
AcDbEntity
8
BEND_EXTENT
100
AcDbLine
10
-8.9730326250365131
20
1.7489692880089924
30
-1.1624529016596137e-14
11
-8.9730296910600043
21
0
31
-1.7591969646154557e-14
0
LINE
5
292
100
AcDbEntity
8
BEND_EXTENT
100
AcDbLine
10
-8.9730368869599104
20
4.2895394381819649
30
-1.354977845338997e-15
11
-8.9730339512543349
21
2.5395394381819738
31
-6.4897512016386345e-15
0
LINE
5
293
100
AcDbEntity
8
BEND_EXTENT
100
AcDbLine
10
-5.6283978808045854
20
4.2895394475008395
30
6.1297961421018444e-15
11
-5.6283949450990125
21
2.5395394475008439
31
-1.0866453853699636e-15
0
LINE
5
294
100
AcDbEntity
8
BEND_EXTENT
100
AcDbLine
10
-5.6283936188811978
20
1.7489693043137855
30
-3.5846435168427412e-15
11
-5.6283906849046641
21
-1.1102230246251565e-15
31
-1.0107195658713671e-14
0
LINE
5
295
100
AcDbEntity
8
BEND_EXTENT
100
AcDbLine
10
3.3446419401318472
20
10.16057985635382
30
4.0375149307543454e-14
11
3.3446390061553388
21
11.909549144362812
31
4.8007924474039604e-14
0
LINE
5
296
100
AcDbEntity
8
BEND_EXTENT
100
AcDbLine
10
3.3446489955635816
20
5.9547747322307174
30
2.2195266824504149e-14
11
3.344647527316619
21
6.8300097061808529
31
2.497082031867923e-14
0
LINE
5
297
100
AcDbEntity
8
BEND_EXTENT
100
AcDbLine
10
3.3446489955635816
20
5.9547747322307174
30
2.2195266824504149e-14
11
3.3446475969232505
21
5.0795397582807
31
6.3557363121548503e-07
0
LINE
5
298
100
AcDbEntity
8
BEND_EXTENT
100
AcDbLine
10
3.3446462020552481
20
7.6200097061808485
30
2.8023929965114163e-14
11
3.3446432663496708
21
9.3700097061808378
31
3.6905706029523688e-14
0
LINE
5
299
100
AcDbEntity
8
BEND_EXTENT
100
AcDbLine
10
7.1958999220411712e-06
20
7.6200096968619739
30
2.9143384418518275e-14
11
4.2601943495146344e-06
21
9.3700096968619668
31
3.5804714433677507e-14
0
LINE
5
300
100
AcDbEntity
8
BEND_EXTENT
100
AcDbLine
10
2.9339765333924461e-06
20
10.160579840049026
30
3.9968047102088008e-14
11
-1.1102230246251565e-15
21
11.909549144362812
31
4.6768155000115234e-14
0
LINE
5
301
100
AcDbEntity
8
BEND_EXTENT
100
AcDbLine
10
9.9894084687468521e-06
20
5.9547745992326861
30
2.2759609765596277e-14
11
8.5211612954605442e-06
21
6.8300096968619766
31
2.6506608406317782e-14
0
LINE
5
302
100
AcDbEntity
8
BEND_EXTENT
100
AcDbLine
10
9.9894084687468521e-06
20
5.9547745992326861
30
2.2759609765596277e-14
11
8.5907679364671807e-06
21
5.0795395016035192
31
6.3557372267933807e-07
0
LINE
5
303
100
AcDbEntity
8
BEND_EXTENT
100
AcDbLine
10
3.3446419401318495
20
1.7489692880089924
30
6.0970062973304599e-15
11
3.3446390061553402
21
5.5511151231257827e-16
31
1.295464492992203e-16
0
LINE
5
304
100
AcDbEntity
8
BEND_EXTENT
100
AcDbLine
10
3.344646202055249
20
4.2895394381819631
30
1.5395140238984957e-14
11
3.3446432663496717
21
2.5395394381819711
31
1.0260347652886564e-14
0
LINE
5
305
100
AcDbEntity
8
BEND_EXTENT
100
AcDbLine
10
7.1958999220411712e-06
20
4.2895394475008377
30
1.6514594692389086e-14
11
4.2601943489595229e-06
21
2.5395394475008413
31
9.4369118131966894e-15
0
LINE
5
306
100
AcDbEntity
8
BEND_EXTENT
100
AcDbLine
10
2.9339765339475576e-06
20
1.7489693043137866
30
6.6613492384220559e-15
11
0
21
0
31
0
0
ENDSEC
0
SECTION
2
OBJECTS
0
DICTIONARY
5
C
100
AcDbDictionary
3
ACAD_GROUP
350
D
3
ACAD_MLINESTYLE
350
17
0
DICTIONARY
5
D
100
AcDbDictionary
0
DICTIONARY
5
1A
330
C
100
AcDbDictionary
0
DICTIONARY
5
17
100
AcDbDictionary
0
ENDSEC
0
EOF
